<svg width="50" height="50" viewBox="0 0 50 50" fill="none" xmlns="http://www.w3.org/2000/svg">
<rect x="0.5" y="0.5" width="49" height="49" rx="24.5" stroke="#FF5733"/>
<path d="M33.125 17.5H16.875C15.8395 17.5 15 18.3395 15 19.375V30.625C15 31.6605 15.8395 32.5 16.875 32.5H33.125C34.1605 32.5 35 31.6605 35 30.625V19.375C35 18.3395 34.1605 17.5 33.125 17.5ZM33.125 19.375V20.9689C32.2491 21.6822 30.8528 22.7913 27.8677 25.1287C27.2098 25.6462 25.9067 26.8893 25 26.8748C24.0934 26.8895 22.7899 25.646 22.1323 25.1287C19.1477 22.7916 17.751 21.6823 16.875 20.9689V19.375H33.125ZM16.875 30.625V23.3749C17.7701 24.0879 19.0394 25.0883 20.9741 26.6033C21.8279 27.2754 23.3231 28.759 25 28.75C26.6686 28.759 28.1449 27.2969 29.0255 26.6036C30.9602 25.0886 32.2299 24.0879 33.125 23.375V30.625H16.875Z" fill="#FF5733"/>
</svg>
