<svg width="199" height="50" viewBox="0 0 199 50" fill="none" xmlns="http://www.w3.org/2000/svg">
<rect x="0.5" y="0.5" width="49" height="49" rx="24.5" stroke="#FF5733"/>
<path d="M33.125 17.5H16.875C15.8395 17.5 15 18.3395 15 19.375V30.625C15 31.6605 15.8395 32.5 16.875 32.5H33.125C34.1605 32.5 35 31.6605 35 30.625V19.375C35 18.3395 34.1605 17.5 33.125 17.5ZM33.125 19.375V20.9689C32.2491 21.6822 30.8528 22.7913 27.8677 25.1287C27.2098 25.6462 25.9067 26.8893 25 26.8748C24.0934 26.8895 22.7899 25.646 22.1323 25.1287C19.1477 22.7916 17.751 21.6823 16.875 20.9689V19.375H33.125ZM16.875 30.625V23.3749C17.7701 24.0879 19.0394 25.0883 20.9741 26.6033C21.8279 27.2754 23.3231 28.759 25 28.75C26.6686 28.759 28.1449 27.2969 29.0255 26.6036C30.9602 25.0886 32.2299 24.0879 33.125 23.375V30.625H16.875Z" fill="#FF5733"/>
<path d="M62.8438 22.4688C63.4635 21.75 64.2474 21.3906 65.1953 21.3906C66.9974 21.3906 67.9115 22.4193 67.9375 24.4766V30H66.0391V24.5469C66.0391 23.9635 65.9115 23.5521 65.6562 23.3125C65.4062 23.0677 65.0365 22.9453 64.5469 22.9453C63.7865 22.9453 63.2188 23.2839 62.8438 23.9609V30H60.9453V18H62.8438V22.4688ZM73.5859 30.1562C72.3828 30.1562 71.4062 29.7786 70.6562 29.0234C69.9115 28.263 69.5391 27.2526 69.5391 25.9922V25.7578C69.5391 24.9141 69.7005 24.1615 70.0234 23.5C70.3516 22.8333 70.8099 22.3151 71.3984 21.9453C71.987 21.5755 72.6432 21.3906 73.3672 21.3906C74.5182 21.3906 75.4062 21.7578 76.0312 22.4922C76.6615 23.2266 76.9766 24.2656 76.9766 25.6094V26.375H71.4531C71.5104 27.0729 71.7422 27.625 72.1484 28.0312C72.5599 28.4375 73.0755 28.6406 73.6953 28.6406C74.5651 28.6406 75.2734 28.2891 75.8203 27.5859L76.8438 28.5625C76.5052 29.0677 76.0521 29.4609 75.4844 29.7422C74.9219 30.0182 74.2891 30.1562 73.5859 30.1562ZM73.3594 22.9141C72.8385 22.9141 72.4167 23.0964 72.0938 23.4609C71.776 23.8255 71.5729 24.3333 71.4844 24.9844H75.1016V24.8438C75.0599 24.2083 74.8906 23.7292 74.5938 23.4062C74.2969 23.0781 73.8854 22.9141 73.3594 22.9141ZM80.4766 30H78.5781V18H80.4766V30ZM84.5703 30H82.6719V18H84.5703V30ZM86.2891 25.6953C86.2891 24.8672 86.4531 24.1224 86.7812 23.4609C87.1094 22.7943 87.5703 22.2839 88.1641 21.9297C88.7578 21.5703 89.4401 21.3906 90.2109 21.3906C91.3516 21.3906 92.276 21.7578 92.9844 22.4922C93.6979 23.2266 94.0833 24.2005 94.1406 25.4141L94.1484 25.8594C94.1484 26.6927 93.987 27.4375 93.6641 28.0938C93.3464 28.75 92.888 29.2578 92.2891 29.6172C91.6953 29.9766 91.0078 30.1562 90.2266 30.1562C89.0339 30.1562 88.0781 29.7604 87.3594 28.9688C86.6458 28.1719 86.2891 27.112 86.2891 25.7891V25.6953ZM88.1875 25.8594C88.1875 26.7292 88.3672 27.4115 88.7266 27.9062C89.0859 28.3958 89.5859 28.6406 90.2266 28.6406C90.8672 28.6406 91.3646 28.3906 91.7188 27.8906C92.0781 27.3906 92.2578 26.6589 92.2578 25.6953C92.2578 24.8411 92.0729 24.1641 91.7031 23.6641C91.3385 23.1641 90.8411 22.9141 90.2109 22.9141C89.5911 22.9141 89.099 23.1615 88.7344 23.6562C88.3698 24.1458 88.1875 24.8802 88.1875 25.8594ZM100.805 30C100.721 29.8385 100.648 29.5755 100.586 29.2109C99.9818 29.8411 99.2422 30.1562 98.3672 30.1562C97.5182 30.1562 96.8255 29.9141 96.2891 29.4297C95.7526 28.9453 95.4844 28.3464 95.4844 27.6328C95.4844 26.7318 95.8177 26.0417 96.4844 25.5625C97.1562 25.0781 98.1146 24.8359 99.3594 24.8359H100.523V24.2812C100.523 23.8438 100.401 23.4948 100.156 23.2344C99.9115 22.9688 99.5391 22.8359 99.0391 22.8359C98.6068 22.8359 98.2526 22.9453 97.9766 23.1641C97.7005 23.3776 97.5625 23.651 97.5625 23.9844H95.6641C95.6641 23.5208 95.8177 23.0885 96.125 22.6875C96.4323 22.2812 96.849 21.9635 97.375 21.7344C97.9062 21.5052 98.4974 21.3906 99.1484 21.3906C100.138 21.3906 100.927 21.6406 101.516 22.1406C102.104 22.6354 102.406 23.3333 102.422 24.2344V28.0469C102.422 28.8073 102.529 29.4141 102.742 29.8672V30H100.805ZM98.7188 28.6328C99.0938 28.6328 99.4453 28.5417 99.7734 28.3594C100.107 28.1771 100.357 27.9323 100.523 27.625V26.0312H99.5C98.7969 26.0312 98.2682 26.1536 97.9141 26.3984C97.5599 26.6432 97.3828 26.9896 97.3828 27.4375C97.3828 27.8021 97.5026 28.0938 97.7422 28.3125C97.987 28.526 98.3125 28.6328 98.7188 28.6328ZM106.43 30H104.531V18H106.43V30ZM112.227 30.1562C111.023 30.1562 110.047 29.7786 109.297 29.0234C108.552 28.263 108.18 27.2526 108.18 25.9922V25.7578C108.18 24.9141 108.341 24.1615 108.664 23.5C108.992 22.8333 109.451 22.3151 110.039 21.9453C110.628 21.5755 111.284 21.3906 112.008 21.3906C113.159 21.3906 114.047 21.7578 114.672 22.4922C115.302 23.2266 115.617 24.2656 115.617 25.6094V26.375H110.094C110.151 27.0729 110.383 27.625 110.789 28.0312C111.201 28.4375 111.716 28.6406 112.336 28.6406C113.206 28.6406 113.914 28.2891 114.461 27.5859L115.484 28.5625C115.146 29.0677 114.693 29.4609 114.125 29.7422C113.562 30.0182 112.93 30.1562 112.227 30.1562ZM112 22.9141C111.479 22.9141 111.057 23.0964 110.734 23.4609C110.417 23.8255 110.214 24.3333 110.125 24.9844H113.742V24.8438C113.701 24.2083 113.531 23.7292 113.234 23.4062C112.938 23.0781 112.526 22.9141 112 22.9141ZM120.133 24.3281L121.742 21.5469H123.852L121.266 25.7109L123.938 30H121.844L120.156 27.1094L118.477 30H116.367L119.039 25.7109L116.461 21.5469H118.555L120.133 24.3281ZM126.328 28C126.682 28 126.956 28.1016 127.148 28.3047C127.341 28.5026 127.438 28.7526 127.438 29.0547C127.438 29.3516 127.341 29.599 127.148 29.7969C126.956 29.9896 126.682 30.0859 126.328 30.0859C125.99 30.0859 125.721 29.9896 125.523 29.7969C125.326 29.6042 125.227 29.3568 125.227 29.0547C125.227 28.7526 125.323 28.5026 125.516 28.3047C125.708 28.1016 125.979 28 126.328 28ZM129.258 25.7109C129.258 24.4089 129.56 23.3646 130.164 22.5781C130.768 21.7865 131.578 21.3906 132.594 21.3906C133.49 21.3906 134.214 21.7031 134.766 22.3281V18H136.664V30H134.945L134.852 29.125C134.284 29.8125 133.526 30.1562 132.578 30.1562C131.589 30.1562 130.786 29.7578 130.172 28.9609C129.562 28.1641 129.258 27.0807 129.258 25.7109ZM131.156 25.875C131.156 26.7344 131.32 27.4062 131.648 27.8906C131.982 28.3698 132.453 28.6094 133.062 28.6094C133.839 28.6094 134.406 28.263 134.766 27.5703V23.9609C134.417 23.2839 133.854 22.9453 133.078 22.9453C132.464 22.9453 131.99 23.1901 131.656 23.6797C131.323 24.1641 131.156 24.8958 131.156 25.875ZM142.367 30.1562C141.164 30.1562 140.188 29.7786 139.438 29.0234C138.693 28.263 138.32 27.2526 138.32 25.9922V25.7578C138.32 24.9141 138.482 24.1615 138.805 23.5C139.133 22.8333 139.591 22.3151 140.18 21.9453C140.768 21.5755 141.424 21.3906 142.148 21.3906C143.299 21.3906 144.188 21.7578 144.812 22.4922C145.443 23.2266 145.758 24.2656 145.758 25.6094V26.375H140.234C140.292 27.0729 140.523 27.625 140.93 28.0312C141.341 28.4375 141.857 28.6406 142.477 28.6406C143.346 28.6406 144.055 28.2891 144.602 27.5859L145.625 28.5625C145.286 29.0677 144.833 29.4609 144.266 29.7422C143.703 30.0182 143.07 30.1562 142.367 30.1562ZM142.141 22.9141C141.62 22.9141 141.198 23.0964 140.875 23.4609C140.557 23.8255 140.354 24.3333 140.266 24.9844H143.883V24.8438C143.841 24.2083 143.672 23.7292 143.375 23.4062C143.078 23.0781 142.667 22.9141 142.141 22.9141ZM150.109 27.5938L151.898 21.5469H153.859L150.93 30H149.281L146.328 21.5469H148.297L150.109 27.5938ZM158.664 30.1562C157.461 30.1562 156.484 29.7786 155.734 29.0234C154.99 28.263 154.617 27.2526 154.617 25.9922V25.7578C154.617 24.9141 154.779 24.1615 155.102 23.5C155.43 22.8333 155.888 22.3151 156.477 21.9453C157.065 21.5755 157.721 21.3906 158.445 21.3906C159.596 21.3906 160.484 21.7578 161.109 22.4922C161.74 23.2266 162.055 24.2656 162.055 25.6094V26.375H156.531C156.589 27.0729 156.82 27.625 157.227 28.0312C157.638 28.4375 158.154 28.6406 158.773 28.6406C159.643 28.6406 160.352 28.2891 160.898 27.5859L161.922 28.5625C161.583 29.0677 161.13 29.4609 160.562 29.7422C160 30.0182 159.367 30.1562 158.664 30.1562ZM158.438 22.9141C157.917 22.9141 157.495 23.0964 157.172 23.4609C156.854 23.8255 156.651 24.3333 156.562 24.9844H160.18V24.8438C160.138 24.2083 159.969 23.7292 159.672 23.4062C159.375 23.0781 158.964 22.9141 158.438 22.9141ZM165.555 30H163.656V18H165.555V30ZM167.273 25.6953C167.273 24.8672 167.438 24.1224 167.766 23.4609C168.094 22.7943 168.555 22.2839 169.148 21.9297C169.742 21.5703 170.424 21.3906 171.195 21.3906C172.336 21.3906 173.26 21.7578 173.969 22.4922C174.682 23.2266 175.068 24.2005 175.125 25.4141L175.133 25.8594C175.133 26.6927 174.971 27.4375 174.648 28.0938C174.331 28.75 173.872 29.2578 173.273 29.6172C172.68 29.9766 171.992 30.1562 171.211 30.1562C170.018 30.1562 169.062 29.7604 168.344 28.9688C167.63 28.1719 167.273 27.112 167.273 25.7891V25.6953ZM169.172 25.8594C169.172 26.7292 169.352 27.4115 169.711 27.9062C170.07 28.3958 170.57 28.6406 171.211 28.6406C171.852 28.6406 172.349 28.3906 172.703 27.8906C173.062 27.3906 173.242 26.6589 173.242 25.6953C173.242 24.8411 173.057 24.1641 172.688 23.6641C172.323 23.1641 171.826 22.9141 171.195 22.9141C170.576 22.9141 170.083 23.1615 169.719 23.6562C169.354 24.1458 169.172 24.8802 169.172 25.8594ZM184.141 25.8594C184.141 27.1667 183.844 28.2109 183.25 28.9922C182.656 29.7682 181.859 30.1562 180.859 30.1562C179.932 30.1562 179.19 29.8516 178.633 29.2422V33.25H176.734V21.5469H178.484L178.562 22.4062C179.12 21.7292 179.878 21.3906 180.836 21.3906C181.867 21.3906 182.674 21.776 183.258 22.5469C183.846 23.3125 184.141 24.3776 184.141 25.7422V25.8594ZM182.25 25.6953C182.25 24.8516 182.081 24.1823 181.742 23.6875C181.409 23.1927 180.93 22.9453 180.305 22.9453C179.529 22.9453 178.971 23.2656 178.633 23.9062V27.6562C178.977 28.3125 179.539 28.6406 180.32 28.6406C180.924 28.6406 181.396 28.3984 181.734 27.9141C182.078 27.4245 182.25 26.6849 182.25 25.6953ZM189.477 30.1562C188.273 30.1562 187.297 29.7786 186.547 29.0234C185.802 28.263 185.43 27.2526 185.43 25.9922V25.7578C185.43 24.9141 185.591 24.1615 185.914 23.5C186.242 22.8333 186.701 22.3151 187.289 21.9453C187.878 21.5755 188.534 21.3906 189.258 21.3906C190.409 21.3906 191.297 21.7578 191.922 22.4922C192.552 23.2266 192.867 24.2656 192.867 25.6094V26.375H187.344C187.401 27.0729 187.633 27.625 188.039 28.0312C188.451 28.4375 188.966 28.6406 189.586 28.6406C190.456 28.6406 191.164 28.2891 191.711 27.5859L192.734 28.5625C192.396 29.0677 191.943 29.4609 191.375 29.7422C190.812 30.0182 190.18 30.1562 189.477 30.1562ZM189.25 22.9141C188.729 22.9141 188.307 23.0964 187.984 23.4609C187.667 23.8255 187.464 24.3333 187.375 24.9844H190.992V24.8438C190.951 24.2083 190.781 23.7292 190.484 23.4062C190.188 23.0781 189.776 22.9141 189.25 22.9141ZM198.773 23.2812C198.523 23.2396 198.266 23.2188 198 23.2188C197.13 23.2188 196.544 23.5521 196.242 24.2188V30H194.344V21.5469H196.156L196.203 22.4922C196.661 21.7578 197.297 21.3906 198.109 21.3906C198.38 21.3906 198.604 21.4271 198.781 21.5L198.773 23.2812Z" fill="#222222"/>
</svg>
